<?xml version="1.0" encoding="utf-8"?>
<!-- Generator: Adobe Illustrator 23.1.0, SVG Export Plug-In . SVG Version: 6.00 Build 0)  -->
<svg version="1.1" id="Layer_1" xmlns="http://www.w3.org/2000/svg" xmlns:xlink="http://www.w3.org/1999/xlink" x="0px" y="0px"
	 viewBox="0 0 1024 1024" style="enable-background:new 0 0 1024 1024;" xml:space="preserve">
<style type="text/css">
	.st0{fill-rule:evenodd;clip-rule:evenodd;fill:#FFA800;}
</style>
<path id="Color_Fill_1" class="st0" d="M718,211c8.6-1.8,16,0.4,21,4l43,44l29,28c4.8,11.8,3.8,14.3,2,22
	C710.7,411.7,609.3,512.3,507,615c-11.6,6.8-24.5,11-36,16c-21.9,9.5-45.1,19.5-67,29c-7.7,3.3-27.3,13.5-36,9
	c-6.9-2.1-8.7-7.5-13-12c-3.2-13.2,7.9-31,14-45c9.3-21.3,18-42.5,27-63c4.2-9.6,6.5-19.4,12-28c8-12.5,20.9-22.9,31-33
	c22.7-22.7,45.3-45.3,68-68c43.3-43.3,86.7-86.7,130-130C663.9,263.1,689.7,236,718,211z M725,262c-10.8,9.9-32.8,32.4-39,39
	c9.7,10.1,27.3,27.5,38,37c12.7-13,26.3-26,39-39C752.8,289,733.6,270.4,725,262z M248,346v430c11.8,0.1,29.3,0,42,0h388
	c0.1-12.6,0-51.8,0-69V555c1-2.5,2.3-4.9,4-7c2.3-3.1,5.9-5.9,11-8c11-0.5,18.4,0.6,24,10c4.8,6.6,3,21.4,3,33v189
	c0,16.6,1.6,35.2-6,41c-7.3,5.6-18.6,5-30,5H258c-22.7-1-39.6,3-47-7c-5.7-7.8-5-21.5-5-35V350c0.3-10.7-0.3-21.3,0-32
	c1.9-5.7,8.1-13.6,14-14c13.4-0.9,40.8-1,56-1h127c63.4,1.3,79-4.2,81,23c-1.2,13.3-9.1,17-13,19s-48.2,1-63,1H248z M665,322
	L509,479c-21.7,20.7-60.7,60.6-58,56c10.2,10.3,28.6,29.7,38,38c52-52.3,106-105.7,158-158l38-38c5.2-5.2,13.2-11.4,18-18
	C690.7,347,677.3,334,665,322z M437,562c-6.2,13.8-14.8,31.1-20,46c-1.5,0.7,22.4-8.8,47-20C455.3,579.7,446.7,570.5,437,562z"/>
</svg>
