<?xml version="1.0" encoding="UTF-8"?>
<svg xmlns="http://www.w3.org/2000/svg" xmlns:xlink="http://www.w3.org/1999/xlink" width="100px" height="100px" viewBox="0 0 100 100" version="1.1">
<g id="surface1">
<path style=" stroke:none;fill-rule:evenodd;fill:rgb(100%,65.882355%,0%);fill-opacity:1;" d="M 70.117188 20.605469 C 70.957031 20.429688 71.679688 20.644531 72.167969 20.996094 L 76.367188 25.292969 L 79.199219 28.027344 C 79.667969 29.179688 79.570312 29.421875 79.394531 30.175781 C 69.40625 40.203125 59.5 50.027344 49.511719 60.058594 C 48.378906 60.722656 47.117188 61.132812 45.996094 61.621094 C 43.859375 62.546875 41.59375 63.523438 39.453125 64.453125 C 38.703125 64.773438 36.789062 65.773438 35.9375 65.332031 C 35.265625 65.125 35.085938 64.601562 34.667969 64.160156 C 34.355469 62.871094 35.4375 61.132812 36.035156 59.765625 C 36.945312 57.6875 37.792969 55.617188 38.671875 53.613281 C 39.082031 52.675781 39.304688 51.71875 39.84375 50.878906 C 40.625 49.65625 41.882812 48.640625 42.871094 47.65625 C 45.085938 45.4375 47.296875 43.234375 49.511719 41.015625 C 53.738281 36.789062 57.980469 32.546875 62.207031 28.320312 C 64.835938 25.695312 67.351562 23.046875 70.117188 20.605469 Z M 70.800781 25.585938 C 69.746094 26.550781 67.597656 28.75 66.992188 29.394531 C 67.9375 30.382812 69.65625 32.078125 70.703125 33.007812 C 71.945312 31.738281 73.273438 30.46875 74.511719 29.199219 C 73.515625 28.222656 71.640625 26.40625 70.800781 25.585938 Z M 24.21875 33.789062 L 24.21875 75.78125 C 25.371094 75.789062 27.078125 75.78125 28.320312 75.78125 L 66.210938 75.78125 C 66.21875 74.550781 66.210938 70.722656 66.210938 69.042969 L 66.210938 54.199219 C 66.308594 53.953125 66.4375 53.71875 66.601562 53.515625 C 66.828125 53.210938 67.179688 52.9375 67.675781 52.734375 C 68.75 52.6875 69.472656 52.792969 70.019531 53.710938 C 70.488281 54.355469 70.3125 55.800781 70.3125 56.933594 L 70.3125 75.390625 C 70.3125 77.011719 70.46875 78.828125 69.726562 79.394531 C 69.015625 79.941406 67.910156 79.882812 66.796875 79.882812 L 25.195312 79.882812 C 22.976562 79.785156 21.328125 80.175781 20.605469 79.199219 C 20.046875 78.4375 20.117188 77.101562 20.117188 75.78125 L 20.117188 34.179688 C 20.148438 33.132812 20.085938 32.101562 20.117188 31.054688 C 20.304688 30.5 20.90625 29.726562 21.484375 29.6875 C 22.792969 29.601562 25.46875 29.589844 26.953125 29.589844 L 39.355469 29.589844 C 45.546875 29.71875 47.070312 29.179688 47.265625 31.835938 C 47.148438 33.132812 46.375 33.496094 45.996094 33.691406 C 45.617188 33.886719 41.289062 33.789062 39.84375 33.789062 Z M 64.941406 31.445312 L 49.707031 46.777344 C 47.585938 48.796875 43.78125 52.695312 44.042969 52.246094 C 45.039062 53.25 46.835938 55.148438 47.753906 55.957031 C 52.832031 50.851562 58.105469 45.632812 63.183594 40.527344 L 66.894531 36.816406 C 67.402344 36.308594 68.183594 35.703125 68.652344 35.058594 C 67.453125 33.886719 66.140625 32.617188 64.941406 31.445312 Z M 42.675781 54.882812 C 42.070312 56.230469 41.230469 57.921875 40.722656 59.375 C 40.578125 59.445312 42.910156 58.515625 45.3125 57.421875 C 44.460938 56.613281 43.625 55.710938 42.675781 54.882812 Z M 42.675781 54.882812 "/>
</g>
</svg>
