<?xml version="1.0" encoding="UTF-8"?>
<svg xmlns="http://www.w3.org/2000/svg" xmlns:xlink="http://www.w3.org/1999/xlink" width="32px" height="32px" viewBox="0 0 32 32" version="1.1">
<g id="surface1">
<path style=" stroke:none;fill-rule:evenodd;fill:rgb(100%,65.882355%,0%);fill-opacity:1;" d="M 22.4375 6.59375 C 22.707031 6.539062 22.9375 6.605469 23.09375 6.71875 L 24.4375 8.09375 L 25.34375 8.96875 C 25.492188 9.335938 25.460938 9.414062 25.40625 9.65625 C 22.210938 12.867188 19.039062 16.007812 15.84375 19.21875 C 15.480469 19.429688 15.078125 19.5625 14.71875 19.71875 C 14.035156 20.015625 13.308594 20.328125 12.625 20.625 C 12.382812 20.726562 11.773438 21.046875 11.5 20.90625 C 11.285156 20.839844 11.226562 20.671875 11.09375 20.53125 C 10.992188 20.117188 11.339844 19.5625 11.53125 19.125 C 11.820312 18.460938 12.09375 17.796875 12.375 17.15625 C 12.507812 16.855469 12.578125 16.550781 12.75 16.28125 C 13 15.890625 13.402344 15.566406 13.71875 15.25 C 14.429688 14.539062 15.132812 13.835938 15.84375 13.125 C 17.195312 11.773438 18.554688 10.414062 19.90625 9.0625 C 20.746094 8.222656 21.554688 7.375 22.4375 6.59375 Z M 22.65625 8.1875 C 22.320312 8.496094 21.632812 9.199219 21.4375 9.40625 C 21.742188 9.722656 22.289062 10.265625 22.625 10.5625 C 23.023438 10.15625 23.445312 9.75 23.84375 9.34375 C 23.523438 9.03125 22.925781 8.449219 22.65625 8.1875 Z M 7.75 10.8125 L 7.75 24.25 C 8.117188 24.253906 8.664062 24.25 9.0625 24.25 L 21.1875 24.25 C 21.191406 23.855469 21.1875 22.632812 21.1875 22.09375 L 21.1875 17.34375 C 21.21875 17.265625 21.257812 17.191406 21.3125 17.125 C 21.382812 17.027344 21.496094 16.941406 21.65625 16.875 C 22 16.859375 22.230469 16.894531 22.40625 17.1875 C 22.554688 17.394531 22.5 17.855469 22.5 18.21875 L 22.5 24.125 C 22.5 24.644531 22.550781 25.226562 22.3125 25.40625 C 22.085938 25.582031 21.730469 25.5625 21.375 25.5625 L 8.0625 25.5625 C 7.351562 25.53125 6.824219 25.65625 6.59375 25.34375 C 6.414062 25.101562 6.4375 24.671875 6.4375 24.25 L 6.4375 10.9375 C 6.445312 10.601562 6.429688 10.273438 6.4375 9.9375 C 6.496094 9.757812 6.691406 9.511719 6.875 9.5 C 7.292969 9.472656 8.148438 9.46875 8.625 9.46875 L 12.59375 9.46875 C 14.574219 9.507812 15.0625 9.335938 15.125 10.1875 C 15.085938 10.601562 14.839844 10.71875 14.71875 10.78125 C 14.597656 10.84375 13.210938 10.8125 12.75 10.8125 Z M 20.78125 10.0625 L 15.90625 14.96875 C 15.226562 15.617188 14.007812 16.863281 14.09375 16.71875 C 14.414062 17.039062 14.988281 17.648438 15.28125 17.90625 C 16.90625 16.273438 18.59375 14.601562 20.21875 12.96875 L 21.40625 11.78125 C 21.570312 11.617188 21.820312 11.425781 21.96875 11.21875 C 21.585938 10.84375 21.164062 10.4375 20.78125 10.0625 Z M 13.65625 17.5625 C 13.460938 17.992188 13.195312 18.535156 13.03125 19 C 12.984375 19.023438 13.730469 18.726562 14.5 18.375 C 14.226562 18.117188 13.960938 17.828125 13.65625 17.5625 Z M 13.65625 17.5625 "/>
</g>
</svg>
