<svg xmlns="http://www.w3.org/2000/svg" width="456" height="456" viewBox="0 0 1024 1024">
  <defs>
    <style>
      .cls-1 {
        fill: #ff0;
        fill-rule: evenodd;
      }
    </style>
  </defs>
  <path id="Color_Fill_1" class="cls-1" d="M718,211c8.6-1.752,15.979.4,21,4l43,44,29,28c4.836,11.774,3.784,14.305,2,22C710.677,411.656,609.323,512.344,507,615c-11.645,6.811-24.529,11.032-36,16-21.908,9.487-45.073,19.512-67,29-7.692,3.328-27.3,13.532-36,9-6.85-2.133-8.7-7.458-13-12-3.2-13.182,7.908-31,14-45,9.286-21.347,18.043-42.468,27-63,4.192-9.609,6.491-19.4,12-28,8-12.5,20.853-22.856,31-33q34-33.995,68-68,65-65,130-130C663.938,263.062,689.677,235.956,718,211Zm7,51c-10.77,9.857-32.833,32.439-39,39,9.7,10.136,27.31,27.465,38,37,12.665-13,26.335-26,39-39C752.833,289,733.621,270.355,725,262ZM248,346V776c11.755,0.131,29.268,0,42,0H678c0.056-12.555,0-51.769,0-69V555a28.541,28.541,0,0,1,4-7c2.3-3.118,5.915-5.894,11-8,10.964-.509,18.445.583,24,10,4.779,6.613,3,21.426,3,33V772c0,16.6,1.62,35.17-6,41-7.268,5.561-18.558,5-30,5H258c-22.748-1-39.628,3.035-47-7-5.717-7.782-5-21.468-5-35V350c0.333-10.666-.333-21.334,0-32,1.89-5.652,8.081-13.591,14-14,13.366-.924,40.835-1,56-1H403c63.374,1.331,78.959-4.164,81,23-1.153,13.259-9.124,17.008-13,19s-48.242,1-63,1H248Zm417-24L509,479c-21.707,20.706-60.655,60.575-58,56,10.23,10.324,28.621,29.733,38,38,52-52.328,106.005-105.672,158-158l38-38c5.248-5.248,13.152-11.411,18-18C690.668,347,677.332,334,665,322ZM437,562c-6.168,13.8-14.827,31.075-20,46-1.538.668,22.354-8.755,47-20C455.334,579.668,446.666,570.5,437,562Z"/>
</svg>
